<?xml version="1.0" standalone="no"?>
<!DOCTYPE svg PUBLIC "-//W3C//DTD SVG 20010904//EN"
 "http://www.w3.org/TR/2001/REC-SVG-20010904/DTD/svg10.dtd">
<svg version="1.0" xmlns="http://www.w3.org/2000/svg"
 width="512.000000pt" height="512.000000pt" viewBox="0 0 512.000000 512.000000"
 preserveAspectRatio="xMidYMid meet">

<g transform="translate(0.000000,512.000000) scale(0.100000,-0.100000)"
fill="#000000" stroke="none">
<path d="M1290 4850 c-704 -128 -1253 -758 -1287 -1475 -16 -342 84 -662 306
-976 46 -64 332 -371 980 -1047 503 -526 933 -972 955 -990 163 -136 411 -149
590 -31 59 39 1865 1927 1941 2029 162 217 273 461 321 710 27 139 25 409 -4
542 -182 834 -1005 1389 -1817 1227 -237 -48 -480 -162 -670 -316 l-49 -40
-76 57 c-194 148 -405 247 -639 301 -130 31 -411 35 -551 9z m426 -295 c241
-42 480 -160 686 -338 141 -121 179 -120 326 14 173 158 383 268 602 315 116
25 334 25 450 0 517 -108 922 -509 1021 -1011 20 -101 18 -330 -5 -433 -44
-206 -133 -395 -271 -573 -87 -115 -1831 -1932 -1877 -1957 -52 -28 -125 -29
-176 -3 -45 23 -1824 1878 -1907 1989 -336 446 -352 992 -44 1448 195 290 509
500 828 554 80 13 275 11 367 -5z"/>
</g>
</svg>
