<?xml version="1.0" standalone="no"?>
<!DOCTYPE svg PUBLIC "-//W3C//DTD SVG 20010904//EN"
 "http://www.w3.org/TR/2001/REC-SVG-20010904/DTD/svg10.dtd">
<svg version="1.0" xmlns="http://www.w3.org/2000/svg"
 width="512.000000pt" height="512.000000pt" viewBox="0 0 512.000000 512.000000"
 preserveAspectRatio="xMidYMid meet">

<g transform="translate(0.000000,512.000000) scale(0.100000,-0.100000)"
fill="#000000" stroke="none">
<path d="M1370 4820 c-169 -23 -368 -84 -511 -156 -193 -97 -426 -293 -551
-464 -343 -470 -403 -1077 -157 -1599 113 -241 85 -209 1138 -1263 954 -955
956 -957 1034 -993 155 -71 325 -71 477 0 73 35 95 56 1031 993 873 873 962
966 1023 1058 413 629 337 1438 -184 1965 -164 166 -335 280 -536 359 -470
184 -999 132 -1419 -137 -38 -25 -89 -61 -112 -80 l-43 -34 -42 34 c-168 136
-421 251 -655 298 -122 24 -384 34 -493 19z"/>
</g>
</svg>
