<?xml version="1.0" standalone="no"?>
<!DOCTYPE svg PUBLIC "-//W3C//DTD SVG 20010904//EN"
 "http://www.w3.org/TR/2001/REC-SVG-20010904/DTD/svg10.dtd">
<svg version="1.0" xmlns="http://www.w3.org/2000/svg"
 width="512.000000pt" height="512.000000pt" viewBox="0 0 512.000000 512.000000"
 preserveAspectRatio="xMidYMid meet">

<g transform="translate(0.000000,512.000000) scale(0.100000,-0.100000)"
fill="#ffffff" stroke="none">
<path d="M2190 4675 c-322 -45 -601 -151 -862 -326 -715 -481 -1047 -1347
-837 -2184 164 -659 671 -1203 1321 -1419 944 -314 1970 98 2433 976 414 787
269 1744 -360 2373 -328 329 -755 535 -1207 584 -129 14 -370 12 -488 -4z
m441 -205 c712 -72 1314 -553 1540 -1230 175 -526 103 -1096 -198 -1559 -406
-625 -1159 -940 -1886 -790 -380 79 -752 296 -998 582 -521 607 -594 1458
-183 2135 359 592 1039 931 1725 862z"/>
<path d="M2394 3616 c-62 -20 -102 -55 -131 -113 -22 -45 -25 -62 -20 -109 25
-242 365 -260 418 -23 34 149 -121 291 -267 245z"/>
<path d="M2215 2983 c-30 -7 -73 -52 -80 -84 -9 -40 20 -94 60 -113 19 -9 59
-16 94 -16 l61 0 0 -425 0 -425 -65 0 c-80 0 -121 -19 -141 -65 -19 -45 -8
-90 28 -120 l30 -25 255 0 255 0 29 29 c40 41 41 98 0 143 -27 30 -34 33 -105
36 l-76 4 0 492 c0 469 -1 492 -20 523 -13 21 -31 35 -57 42 -37 11 -229 13
-268 4z"/>
</g>
</svg>
