<?xml version="1.0" standalone="no"?>
<!DOCTYPE svg PUBLIC "-//W3C//DTD SVG 20010904//EN"
 "http://www.w3.org/TR/2001/REC-SVG-20010904/DTD/svg10.dtd">
<svg version="1.0" xmlns="http://www.w3.org/2000/svg"
 width="512.000000pt" height="512.000000pt" viewBox="0 0 512.000000 512.000000"
 preserveAspectRatio="xMidYMid meet">

<g transform="translate(0.000000,512.000000) scale(0.100000,-0.100000)"
fill="#c4c4c4" stroke="none">
<path d="M1324 4690 l-580 -5 -75 -37 c-93 -46 -158 -112 -202 -206 l-32 -67
-8 -908 c-4 -499 -4 -1316 0 -1815 l8 -908 37 -75 c46 -93 112 -158 206 -202
l67 -32 907 -8 c500 -4 1316 -4 1815 0 l908 8 67 32 c94 44 160 109 206 202
l37 75 8 908 c4 499 4 1317 0 1816 l-8 908 -37 75 c-46 93 -112 158 -206 202
l-67 32 -655 6 c-741 7 -1544 7 -2396 -1z m381 -850 l0 -425 -425 0 -425 0 -3
415 c-1 228 0 421 3 428 3 10 94 12 427 10 l423 -3 0 -425z m2560 0 l0 -425
-425 0 -425 0 -3 415 c-1 228 0 421 3 428 3 10 94 12 427 10 l423 -3 0 -425z
m-1277 -2 l-3 -423 -425 0 -425 0 -3 423 -2 422 430 0 430 0 -2 -422z m-1283
-1278 l0 -425 -422 -3 -423 -2 0 430 0 430 423 -2 422 -3 0 -425z m1280 0 l0
-425 -425 0 -425 0 -3 415 c-1 228 0 421 3 428 3 10 94 12 427 10 l423 -3 0
-425z m1275 0 l0 -430 -422 2 -423 3 -3 415 c-1 228 0 421 3 427 3 10 98 13
425 13 l420 0 0 -430z m-2555 -1280 l0 -425 -425 0 -425 0 -3 415 c-1 228 0
421 3 428 3 10 94 12 427 10 l423 -3 0 -425z m1283 3 l2 -423 -430 0 -430 0 0
418 c0 230 3 422 7 425 3 4 196 6 427 5 l421 -3 3 -422z m1277 -3 l0 -425
-425 0 -425 0 -3 415 c-1 228 0 421 3 428 3 10 94 12 427 10 l423 -3 0 -425z"/>
</g>
</svg>
