<svg width="20" height="20" viewBox="0 0 20 20" fill="#833ab4" xmlns="http://www.w3.org/2000/svg">
<path fill-rule="evenodd" clip-rule="evenodd" d="M0 1C0 0.447716 0.447715 0 1 0H19C19.5523 0 20 0.447715 20 1V19C20 19.5523 19.5523 20 19 20H1C0.447716 20 0 19.5523 0 19V1ZM2 5.99406V2H6.0094V5.99406H2ZM2 7.99406V12.0001H6.0094V7.99406H2ZM2 14.0001V18H6.0094V14.0001H2ZM8.0094 18H12.0153V14.0001H8.0094V18ZM14.0153 18H18V14.0001H14.0153V18ZM18 12.0001V7.99406H14.0153V12.0001H18ZM18 5.99406V2H14.0153V5.99406H18ZM12.0153 2H8.0094V5.99406H12.0153V2ZM8.0094 12.0001V7.99406H12.0153V12.0001H8.0094Z" fill="#833ab4"/>
</svg>
